<svg width="40" height="37" viewBox="0 0 40 37" fill="none" xmlns="http://www.w3.org/2000/svg">
<g clip-path="url(#clip0_14_27)">
<rect x="4.41541" y="13.7545" width="21.0541" height="26.297" transform="rotate(-43 4.41541 13.7545)" fill="#D9D9D9"/>
<path d="M39.2452 16.8526L21.7814 0.698662C21.5423 0.477359 21.2584 0.301807 20.9459 0.182032C20.6334 0.0622584 20.2984 0.000610352 19.9602 0.000610352C19.6219 0.000610352 19.287 0.0622584 18.9745 0.182032C18.662 0.301807 18.3781 0.477359 18.1389 0.698662L14.5139 4.05179L19.1139 8.30679C20.1839 7.95991 21.4089 8.19694 22.2614 8.9855C22.6672 9.36155 22.9505 9.8356 23.079 10.3535C23.2074 10.8714 23.1758 11.4122 22.9877 11.9143L27.4214 16.0155C28.4939 15.6733 29.7314 15.8941 30.5877 16.6884C30.8723 16.9518 31.0981 17.2645 31.2521 17.6085C31.4061 17.9526 31.4854 18.3214 31.4853 18.6938C31.4853 19.0662 31.4059 19.4349 31.2518 19.779C31.0977 20.123 30.8718 20.4356 30.5871 20.6989C30.3023 20.9622 29.9643 21.171 29.5924 21.3135C29.2204 21.456 28.8217 21.5293 28.4191 21.5292C28.0165 21.5291 27.6179 21.4557 27.2459 21.3132C26.874 21.1706 26.5361 20.9617 26.2514 20.6983C25.3514 19.8658 25.1289 18.6402 25.5839 17.6146L21.4489 13.7897V23.8549C21.7491 23.9923 22.0234 24.1734 22.2614 24.3914C22.5461 24.6547 22.7719 24.9672 22.9259 25.3113C23.08 25.6553 23.1592 26.024 23.1592 26.3963C23.1592 26.7687 23.08 27.1374 22.9259 27.4814C22.7719 27.8254 22.5461 28.138 22.2614 28.4013C21.9768 28.6645 21.6389 28.8734 21.267 29.0159C20.8951 29.1584 20.4965 29.2317 20.0939 29.2317C19.6914 29.2317 19.2928 29.1584 18.9209 29.0159C18.549 28.8734 18.2111 28.6645 17.9264 28.4013C17.6415 28.1381 17.4154 27.8256 17.2611 27.4816C17.1069 27.1376 17.0275 26.7688 17.0275 26.3963C17.0275 26.0239 17.1069 25.6551 17.2611 25.311C17.4154 24.967 17.6415 24.6545 17.9264 24.3914C18.2227 24.1185 18.5514 23.9115 18.9302 23.7728V13.614C18.5652 13.4752 18.2227 13.2706 17.9264 12.9954C17.496 12.5977 17.2034 12.0905 17.0858 11.5384C16.9683 10.9863 17.0312 10.4144 17.2664 9.89547L12.7289 5.7006L0.753933 16.7659C0.5145 16.9871 0.324555 17.2498 0.194959 17.539C0.0653624 17.8282 -0.00134277 18.1381 -0.00134277 18.4511C-0.00134277 18.7642 0.0653624 19.0741 0.194959 19.3633C0.324555 19.6525 0.5145 19.9152 0.753933 20.1364L18.2189 36.2892C18.4581 36.5105 18.742 36.686 19.0545 36.8058C19.367 36.9256 19.7019 36.9872 20.0402 36.9872C20.3784 36.9872 20.7134 36.9256 21.0259 36.8058C21.3384 36.686 21.6223 36.5105 21.8614 36.2892L39.2452 20.2347C39.4846 20.0134 39.6746 19.7507 39.8042 19.4616C39.9338 19.1724 40.0005 18.8625 40.0005 18.5494C40.0005 18.2364 39.9338 17.9264 39.8042 17.6373C39.6746 17.3481 39.4846 17.0854 39.2452 16.8642" fill="#973D95"/>
</g>
<defs>
<clipPath id="clip0_14_27">
<rect width="40" height="37" fill="white"/>
</clipPath>
</defs>
</svg>
