<svg width="102" height="21" viewBox="0 0 102 21" fill="none" xmlns="http://www.w3.org/2000/svg">
<path d="M5.936 3.368C8.128 3.368 9.832 3.824 11.048 4.736C12.264 5.648 12.872 7 12.872 8.792C12.872 10.664 12.272 12.08 11.072 13.04C9.888 13.984 8.296 14.456 6.296 14.456H4.496V20H0.56V3.368H5.936ZM5.96 11.624C6.888 11.624 7.592 11.408 8.072 10.976C8.568 10.528 8.816 9.8 8.816 8.792C8.816 7.048 7.84 6.176 5.888 6.176H4.496V11.624H5.96ZM19.6721 6.848C21.6241 6.848 23.1521 7.448 24.2561 8.648C25.3601 9.832 25.9121 11.496 25.9121 13.64C25.9121 15 25.6561 16.192 25.1441 17.216C24.6481 18.224 23.9281 19.008 22.9841 19.568C22.0561 20.128 20.9521 20.408 19.6721 20.408C17.7361 20.408 16.2081 19.816 15.0881 18.632C13.9841 17.432 13.4321 15.76 13.4321 13.616C13.4321 12.256 13.6801 11.072 14.1761 10.064C14.6881 9.04 15.4081 8.248 16.3361 7.688C17.2801 7.128 18.3921 6.848 19.6721 6.848ZM19.6721 9.632C18.9041 9.632 18.3281 9.96 17.9441 10.616C17.5601 11.256 17.3681 12.256 17.3681 13.616C17.3681 15.008 17.5521 16.024 17.9201 16.664C18.3041 17.304 18.8881 17.624 19.6721 17.624C20.4401 17.624 21.0161 17.304 21.4001 16.664C21.7841 16.008 21.9761 15 21.9761 13.64C21.9761 12.248 21.7841 11.232 21.4001 10.592C21.0321 9.952 20.4561 9.632 19.6721 9.632ZM35.0797 6.896C35.5437 6.896 35.9677 6.952 36.3517 7.064L35.7517 10.736C35.2717 10.624 34.8877 10.568 34.5997 10.568C33.8477 10.568 33.2717 10.832 32.8717 11.36C32.4877 11.872 32.1837 12.648 31.9597 13.688V20H28.1677V7.256H31.4797L31.7917 9.728C32.0797 8.848 32.5117 8.16 33.0877 7.664C33.6797 7.152 34.3437 6.896 35.0797 6.896ZM45.7925 19.4C45.3285 19.72 44.7845 19.968 44.1605 20.144C43.5525 20.32 42.9445 20.408 42.3365 20.408C39.5525 20.392 38.1605 18.856 38.1605 15.8V9.896H36.3605V7.256H38.1605V4.496L41.9525 4.064V7.256H44.8805L44.4725 9.896H41.9525V15.752C41.9525 16.344 42.0485 16.768 42.2405 17.024C42.4325 17.28 42.7365 17.408 43.1525 17.408C43.5845 17.408 44.0405 17.272 44.5205 17L45.7925 19.4ZM50.8503 7.256V20H47.0583V7.256H50.8503ZM48.9303 0.535999C49.5863 0.535999 50.1223 0.743999 50.5383 1.16C50.9703 1.56 51.1863 2.072 51.1863 2.696C51.1863 3.32 50.9703 3.84 50.5383 4.256C50.1223 4.656 49.5863 4.856 48.9303 4.856C48.2743 4.856 47.7383 4.656 47.3223 4.256C46.9063 3.84 46.6983 3.32 46.6983 2.696C46.6983 2.072 46.9063 1.56 47.3223 1.16C47.7383 0.743999 48.2743 0.535999 48.9303 0.535999ZM59.6638 4.592C59.1198 4.592 58.7278 4.72 58.4878 4.976C58.2478 5.232 58.1278 5.664 58.1278 6.272V7.256H61.1278L60.7198 9.896H58.1278V20H54.3358V9.896H52.4158V7.256H54.3358V6.128C54.3358 4.848 54.7518 3.808 55.5838 3.008C56.4318 2.192 57.6398 1.784 59.2078 1.784C60.4718 1.784 61.6318 2.056 62.6878 2.6L61.6558 5.072C61.0158 4.752 60.3518 4.592 59.6638 4.592ZM67.6721 6.848C69.6241 6.848 71.1521 7.448 72.2561 8.648C73.3601 9.832 73.9121 11.496 73.9121 13.64C73.9121 15 73.6561 16.192 73.1441 17.216C72.6481 18.224 71.9281 19.008 70.9841 19.568C70.0561 20.128 68.9521 20.408 67.6721 20.408C65.7361 20.408 64.2081 19.816 63.0881 18.632C61.9841 17.432 61.4321 15.76 61.4321 13.616C61.4321 12.256 61.6801 11.072 62.1761 10.064C62.6881 9.04 63.4081 8.248 64.3361 7.688C65.2801 7.128 66.3921 6.848 67.6721 6.848ZM67.6721 9.632C66.9041 9.632 66.3281 9.96 65.9441 10.616C65.5601 11.256 65.3681 12.256 65.3681 13.616C65.3681 15.008 65.5521 16.024 65.9201 16.664C66.3041 17.304 66.8881 17.624 67.6721 17.624C68.4401 17.624 69.0161 17.304 69.4001 16.664C69.7841 16.008 69.9761 15 69.9761 13.64C69.9761 12.248 69.7841 11.232 69.4001 10.592C69.0321 9.952 68.4561 9.632 67.6721 9.632ZM79.5517 20.408C78.4477 20.408 77.5837 20.096 76.9597 19.472C76.3517 18.832 76.0477 17.928 76.0477 16.76V2.192L79.8397 1.784V16.616C79.8397 17.144 80.0557 17.408 80.4877 17.408C80.7117 17.408 80.9197 17.368 81.1117 17.288L81.8557 19.976C81.1677 20.264 80.3997 20.408 79.5517 20.408ZM87.0847 7.256V20H83.2927V7.256H87.0847ZM85.1647 0.535999C85.8207 0.535999 86.3567 0.743999 86.7727 1.16C87.2047 1.56 87.4207 2.072 87.4207 2.696C87.4207 3.32 87.2047 3.84 86.7727 4.256C86.3567 4.656 85.8207 4.856 85.1647 4.856C84.5087 4.856 83.9727 4.656 83.5567 4.256C83.1407 3.84 82.9327 3.32 82.9327 2.696C82.9327 2.072 83.1407 1.56 83.5567 1.16C83.9727 0.743999 84.5087 0.535999 85.1647 0.535999ZM95.5861 6.848C97.5381 6.848 99.0661 7.448 100.17 8.648C101.274 9.832 101.826 11.496 101.826 13.64C101.826 15 101.57 16.192 101.058 17.216C100.562 18.224 99.8421 19.008 98.8981 19.568C97.9701 20.128 96.8661 20.408 95.5861 20.408C93.6501 20.408 92.1221 19.816 91.0021 18.632C89.8981 17.432 89.3461 15.76 89.3461 13.616C89.3461 12.256 89.5941 11.072 90.0901 10.064C90.6021 9.04 91.3221 8.248 92.2501 7.688C93.1941 7.128 94.3061 6.848 95.5861 6.848ZM95.5861 9.632C94.8181 9.632 94.2421 9.96 93.8581 10.616C93.4741 11.256 93.2821 12.256 93.2821 13.616C93.2821 15.008 93.4661 16.024 93.8341 16.664C94.2181 17.304 94.8021 17.624 95.5861 17.624C96.3541 17.624 96.9301 17.304 97.3141 16.664C97.6981 16.008 97.8901 15 97.8901 13.64C97.8901 12.248 97.6981 11.232 97.3141 10.592C96.9461 9.952 96.3701 9.632 95.5861 9.632Z" fill="white"/>
</svg>
