<svg width="50" height="50" viewBox="0 0 50 50" fill="none" xmlns="http://www.w3.org/2000/svg">
<rect width="50" height="50" fill="#303030"/>
<path d="M40.4561 17.644V16.3513C40.4561 15.2438 40.0162 14.1817 39.2331 13.3987C38.4501 12.6156 37.388 12.1757 36.2805 12.1757H13.7196C12.6121 12.1757 11.55 12.6156 10.767 13.3987C9.98387 14.1817 9.54395 15.2438 9.54395 16.3513V17.644C9.54395 17.774 9.5956 17.8987 9.68753 17.9906C9.77947 18.0825 9.90417 18.1342 10.0342 18.1342H39.9659C40.0959 18.1342 40.2206 18.0825 40.3126 17.9906C40.4045 17.8987 40.4561 17.774 40.4561 17.644Z" fill="#973D95"/>
<path d="M9.54395 20.8195V33.6487C9.54395 34.7562 9.98387 35.8183 10.767 36.6013C11.55 37.3844 12.6121 37.8243 13.7196 37.8243H36.2805C37.388 37.8243 38.4501 37.3844 39.2331 36.6013C40.0162 35.8183 40.4561 34.7562 40.4561 33.6487V20.8195C40.4561 20.6894 40.4045 20.5648 40.3126 20.4728C40.2206 20.3809 40.0959 20.3292 39.9659 20.3292H10.0342C9.90417 20.3292 9.77947 20.3809 9.68753 20.4728C9.5956 20.5648 9.54395 20.6894 9.54395 20.8195Z" fill="#973D95"/>
<path d="M13.639 16.1659C14.1603 16.1659 14.5829 15.7433 14.5829 15.222C14.5829 14.7007 14.1603 14.2781 13.639 14.2781C13.1177 14.2781 12.6951 14.7007 12.6951 15.222C12.6951 15.7433 13.1177 16.1659 13.639 16.1659Z" fill="#303030"/>
<path d="M16.5488 16.1659C17.0701 16.1659 17.4927 15.7433 17.4927 15.222C17.4927 14.7007 17.0701 14.2781 16.5488 14.2781C16.0275 14.2781 15.6049 14.7007 15.6049 15.222C15.6049 15.7433 16.0275 16.1659 16.5488 16.1659Z" fill="#303030"/>
<path d="M19.4586 16.1659C19.9799 16.1659 20.4025 15.7433 20.4025 15.222C20.4025 14.7007 19.9799 14.2781 19.4586 14.2781C18.9372 14.2781 18.5146 14.7007 18.5146 15.222C18.5146 15.7433 18.9372 16.1659 19.4586 16.1659Z" fill="#303030"/>
</svg>
